<svg width="830" height="266" viewBox="0 0 830 266" fill="none" xmlns="http://www.w3.org/2000/svg">
<circle cx="15" cy="251" r="15" fill="#DFE3E7"/>
<circle cx="55" cy="251" r="15" fill="#DFE3E7"/>
<circle cx="95" cy="251" r="15" fill="#DFE3E7"/>
<circle cx="135" cy="251" r="15" fill="#DFE3E7"/>
<circle cx="175" cy="251" r="15" fill="#DFE3E7"/>
<circle cx="215" cy="251" r="15" fill="#DFE3E7"/>
<circle cx="255" cy="251" r="15" fill="#DFE3E7"/>
<circle cx="295" cy="251" r="15" fill="#DFE3E7"/>
<circle cx="335" cy="251" r="15" fill="#DFE3E7"/>
<circle cx="375" cy="251" r="15" fill="#DFE3E7"/>
<circle cx="415" cy="251" r="15" fill="#DFE3E7"/>
<circle cx="455" cy="251" r="15" fill="#DFE3E7"/>
<circle cx="495" cy="251" r="15" fill="#DFE3E7"/>
<circle cx="535" cy="251" r="15" fill="#DFE3E7"/>
<circle cx="575" cy="251" r="15" fill="#DFE3E7"/>
<circle cx="615" cy="251" r="15" fill="#DFE3E7"/>
<circle cx="655" cy="251" r="15" fill="#DFE3E7"/>
<circle cx="695" cy="251" r="15" fill="#DFE3E7"/>
<circle cx="735" cy="251" r="15" fill="#DFE3E7"/>
<circle cx="775" cy="251" r="15" fill="#DFE3E7"/>
<circle cx="815" cy="251" r="15" fill="#DFE3E7"/>
<circle cx="95" cy="215" r="15" fill="#DFE3E7"/>
<circle cx="175" cy="215" r="15" fill="#DFE3E7"/>
<circle cx="215" cy="215" r="15" fill="#DFE3E7"/>
<circle cx="255" cy="215" r="15" fill="#DFE3E7"/>
<circle cx="335" cy="215" r="15" fill="#DFE3E7"/>
<circle cx="255" cy="175" r="15" fill="#DFE3E7"/>
<circle cx="415" cy="215" r="15" fill="#DFE3E7"/>
<circle cx="455" cy="215" r="15" fill="#DFE3E7"/>
<circle cx="495" cy="215" r="15" fill="#DFE3E7"/>
<circle cx="535" cy="215" r="15" fill="#DFE3E7"/>
<circle cx="575" cy="215" r="15" fill="#DFE3E7"/>
<circle cx="615" cy="215" r="15" fill="#DFE3E7"/>
<circle cx="655" cy="215" r="15" fill="#DFE3E7"/>
<circle cx="695" cy="215" r="15" fill="#DFE3E7"/>
<circle cx="735" cy="215" r="15" fill="#DFE3E7"/>
<circle cx="775" cy="215" r="15" fill="#DFE3E7"/>
<circle cx="815" cy="215" r="15" fill="#DFE3E7"/>
<circle cx="455" cy="175" r="15" fill="#DFE3E7"/>
<circle cx="495" cy="175" r="15" fill="#DFE3E7"/>
<circle cx="535" cy="175" r="15" fill="#DFE3E7"/>
<circle cx="575" cy="175" r="15" fill="#DFE3E7"/>
<circle cx="615" cy="175" r="15" fill="#DFE3E7"/>
<circle cx="655" cy="175" r="15" fill="#DFE3E7"/>
<circle cx="695" cy="175" r="15" fill="#DFE3E7"/>
<circle cx="735" cy="175" r="15" fill="#DFE3E7"/>
<circle cx="775" cy="175" r="15" fill="#DFE3E7"/>
<circle cx="815" cy="175" r="15" fill="#DFE3E7"/>
<circle cx="495" cy="135" r="15" fill="#DFE3E7"/>
<circle cx="495" cy="95" r="15" fill="#DFE3E7"/>
<circle cx="535" cy="135" r="15" fill="#DFE3E7"/>
<circle cx="615" cy="135" r="15" fill="#DFE3E7"/>
<circle cx="655" cy="135" r="15" fill="#DFE3E7"/>
<circle cx="655" cy="95" r="15" fill="#DFE3E7"/>
<circle cx="695" cy="135" r="15" fill="#DFE3E7"/>
<circle cx="735" cy="135" r="15" fill="#DFE3E7"/>
<circle cx="735" cy="95" r="15" fill="#DFE3E7"/>
<circle cx="735" cy="55" r="15" fill="#DFE3E7"/>
<circle cx="735" cy="15" r="15" fill="#DFE3E7"/>
<circle cx="775" cy="95" r="15" fill="#DFE3E7"/>
<circle cx="775" cy="55" r="15" fill="#DFE3E7"/>
<circle cx="775" cy="135" r="15" fill="#DFE3E7"/>
<circle cx="815" cy="135" r="15" fill="#DFE3E7"/>
</svg>
