<svg xmlns="http://www.w3.org/2000/svg" xmlns:xlink="http://www.w3.org/1999/xlink" width="480" zoomAndPan="magnify" viewBox="0 0 360 359.999987" height="480" preserveAspectRatio="xMidYMid meet" version="1.0"><defs><clipPath id="5be635763f"><path d="M 4 95.5625 L 360 95.5625 L 360 324.3125 L 4 324.3125 Z M 4 95.5625 " clip-rule="nonzero"/></clipPath><clipPath id="a5ee61e19d"><path d="M 4 0.5625 L 356 0.5625 L 356 229.3125 L 4 229.3125 Z M 4 0.5625 " clip-rule="nonzero"/></clipPath><clipPath id="bf28cb5893"><rect x="0" width="356" y="0" height="230"/></clipPath></defs><g clip-path="url(#5be635763f)"><g transform="matrix(1, 0, 0, 1, 4, 95)"><g clip-path="url(#bf28cb5893)"><g clip-path="url(#a5ee61e19d)"><path fill="#0f2e3a" d="M 334.292969 114.78125 L 355.933594 0.53125 L 201.90625 0.53125 C 201.90625 110.375 193.429688 203.824219 333.023438 229.027344 L 333.023438 173.015625 C 292.605469 175.109375 269.785156 160.222656 278.597656 114.78125 Z M 136.988281 114.78125 L 158.621094 0.53125 L 4.59375 0.53125 C 4.59375 110.375 -3.875 203.824219 135.710938 229.027344 L 135.710938 173.015625 C 95.304688 175.109375 72.480469 160.222656 81.296875 114.78125 Z M 136.988281 114.78125 " fill-opacity="1" fill-rule="evenodd"/></g></g></g></g></svg>