<svg width="493" height="487" viewBox="0 0 493 487" fill="none" xmlns="http://www.w3.org/2000/svg">
<path d="M382 -4.85049e-06C411.845 -4.86812e-06 426.767 -5.06834e-06 438.827 3.93007C462.559 11.6643 481.176 30.0296 489.016 53.4413C493 65.3378 493 80.0585 493 109.5C493 138.941 493 153.662 489.016 165.559C481.176 188.97 462.559 207.336 438.827 215.07C426.767 219 411.845 219 382 219C352.155 219 337.233 219 325.173 215.07C301.441 207.336 282.824 188.97 274.984 165.559C271 153.662 271 138.941 271 109.5C271 80.0585 271 65.3378 274.984 53.4413C282.824 30.0296 301.441 11.6643 325.173 3.93007C337.233 -4.92566e-06 352.155 -4.83286e-06 382 -4.85049e-06Z" fill="white"/>
<path d="M231.71 73.05C231.71 32.7056 198.601 -6.91523e-06 157.76 -6.8935e-06C83.3912 -6.85394e-06 46.2068 -8.98636e-06 23.1034 22.8222C9.0476e-06 45.6445 6.85155e-06 82.3763 6.81198e-06 155.84C6.79026e-06 196.184 33.1085 228.89 73.95 228.89L103.53 228.89C177.899 228.89 215.083 228.89 238.187 251.712C261.29 274.534 261.29 311.266 261.29 384.73L261.29 413.95C261.29 454.294 294.399 487 335.24 487C409.609 487 446.793 487 469.897 464.178C493 441.356 493 404.624 493 331.16C493 290.816 459.891 258.11 419.05 258.11L389.47 258.11C315.101 258.11 277.917 258.11 254.813 235.288C231.71 212.466 231.71 175.734 231.71 102.27L231.71 73.05Z" fill="white"/>
</svg>
